<?xml version="1.0" encoding="utf-8"?>
<!-- Generator: Adobe Illustrator 24.0.0, SVG Export Plug-In . SVG Version: 6.00 Build 0)  -->
<svg version="1.1" id="Layer_1" xmlns:svgjs="http://svgjs.com/svgjs"
	 xmlns="http://www.w3.org/2000/svg" xmlns:xlink="http://www.w3.org/1999/xlink" x="0px" y="0px" viewBox="0 0 512 512"
	 style="enable-background:new 0 0 512 512;" xml:space="preserve">
<style type="text/css">
	.st0{fill:#555B6E;}
	.st1{fill:#3C6E71;}
	.st2{fill:#E1E0E0;}
	.st3{fill:#463F3A;}
</style>
<g>
	<g id="Layer_6_1_">
		<g>
			<path class="st0" d="M461.6,264.4l-37-148.8c-0.6-2-2.6-3.4-4.6-3L301.6,131c-2,0.4-3.6,2.2-3.6,4.2l10,153c0.2,4.6,4,8,8.6,7.8
				h1l137.6-21.4c4.4-0.6,7.6-5,6.8-9.4C461.6,265,461.6,264.6,461.6,264.4z"/>
			<path class="st1" d="M307.8,288.2l-10-153c0-2.2,1.4-4,3.6-4.2l53.6-8.4l-11.6-46.4c-0.8-2.6-3.4-4.4-6-4l-156,24.2
				c-2.8,0.4-4.8,2.8-4.6,5.6l13,201.4c0.2,6,5.4,10.6,11.2,10.4c0.4,0,0.8,0,1.2-0.2l115-17.8c-4.4,0.6-8.8-2.4-9.4-6.8
				C308,288.8,307.8,288.6,307.8,288.2z"/>
			<circle class="st0" cx="217.8" cy="458.8" r="34.6"/>
			<circle class="st0" cx="388.6" cy="458.8" r="34.6"/>
			<path class="st0" d="M76.8,109.2c-0.4,0-0.8,0-1.2,0l-59-5.8c-7-0.6-12.2-6.8-11.6-13.8S11.8,77.4,18.8,78L78,83.8
				c7,0.6,12.2,7,11.4,14C88.8,104.2,83.4,109.2,76.8,109.2z"/>
			<path class="st2" d="M431.8,400.2H192l20.8-30.2c7.4-10.8,18.8-18,31.8-20.2l159.8-26.2c6.6-1,11-7.2,10-13.8
				c-1-5.8-6-10.2-12-10.2l-166.6,27.2c-17.4,4.2-32.6,14.6-42.8,29.2l-27.4,40c-5.6,8.2-3.6,19.4,4.6,25c3,2,6.6,3.2,10.2,3.2
				h251.4c6.6,0,12-5.4,12-12C444,405.6,438.6,400.2,431.8,400.2z"/>
			<circle class="st3" cx="217.8" cy="458.8" r="12.4"/>
			<circle class="st3" cx="388.6" cy="458.8" r="12.4"/>
			<path class="st3" d="M506.4,317.4h-4.2v-4.2c0-3-2.6-5.6-5.6-5.6s-5.6,2.6-5.6,5.6v4.2h-4.2c-3,0-5.6,2.6-5.6,5.6
				s2.6,5.6,5.6,5.6h4.2v4.2c0,3,2.6,5.6,5.6,5.6s5.6-2.6,5.6-5.6v-4.2h4.2c3,0,5.6-2.6,5.6-5.6S509.4,317.4,506.4,317.4z"/>
			<path class="st1" d="M176.6,61c-8-1.4-14.2-7.6-15.8-15.4c0-0.2-0.2-0.4-0.4-0.2c-0.2,0-0.2,0.2-0.2,0.2c-1.6,8-7.8,14-15.8,15.4
				c-0.2,0-0.4,0.2-0.2,0.4c0,0.2,0.2,0.2,0.2,0.2c8,1.4,14.2,7.6,15.8,15.4c0,0.2,0.2,0.4,0.4,0.2c0.2,0,0.2-0.2,0.2-0.2
				c1.6-8,7.8-14,15.8-15.4c0.2,0,0.4-0.2,0.2-0.4C176.8,61,176.8,61,176.6,61z"/>
			<circle class="st0" cx="128" cy="105.6" r="6"/>
			<circle class="st3" cx="114" cy="279.6" r="6"/>
			<circle class="st1" cx="476" cy="361.6" r="6"/>
			<path d="M16,108.4l59,5.6c1,0.2,2.2,0.2,3.2,0L166,315.4c6.4,14.8,21.8,23.8,37.8,21.8c-5.8,4.6-10.8,10-15,16.2L161.4,393
				c-7.2,10.4-4.6,24.8,6,32c3.8,2.6,8.4,4,13,4h11c-16.4,14.4-17.8,39.4-3.4,55.8s39.4,17.8,55.8,3.4s17.8-39.4,3.4-55.8
				c-1-1.2-2.2-2.4-3.4-3.4h118.4c-16.4,14.4-17.8,39.4-3.4,55.8s39.4,17.8,55.8,3.4s17.8-39.4,3.4-55.8c-1-1.2-2.2-2.4-3.4-3.4h17
				c9.4,0,17-7.6,17-17s-7.6-17-17-17h-230l15.4-22.2c6.6-9.6,17-16.2,28.4-18l159.8-26.2c9.2-1.6,15.6-10.2,14-19.6
				c-0.4-2.4-1.2-4.6-2.6-6.6l46.4-7.6c10.4-1.6,18-10.6,18-21.2v-119c0-9.4-7.6-16.8-16.8-16.8c-0.2,0-0.4,0-0.4,0l-28.6,0.8
				l-6-24.4c-1.2-4.4-5.6-7.4-10.2-6.6l-12.2,1.8l-0.4-2.6c-4-25.8-28.2-43.6-54-39.6c-2.8,0.4-5.4,1.2-8.2,2c-2.2-1.6-5-2.4-7.8-2
				L318.8,70l-0.8-5c-5-33-36.2-55.6-69.2-50.4s-55.6,36.2-50.6,69.2l0.8,5l-18.2,2.8c-5.2,0.8-9.2,5.6-8.8,10.8l2.8,43.2l-70.8,2
				l-16.2-37c7.8-6,9.2-17.2,3.2-25c-3-3.8-7.4-6.4-12.4-6.8l-59.2-5.6C9.6,72.2,1,79.4,0,89.2S6.2,107.6,16,108.4L16,108.4z
				 M191.2,247l-5.2-80.4l59.2,135.6l-28,4.4L191.2,247z M206.8,308.2l-5.2,0.8c-3.2,0.4-6.2-1.6-6.6-4.8c0-0.2,0-0.6,0-0.8
				l-1.8-26.8L206.8,308.2z M322.8,120c-2.4-14.8,4.4-29.4,17-37.4l9,36l-25.6,4L322.8,120z M423,148.8l10.8,24.8l22.8,91.8v0.2
				c0.4,1.8-0.6,3.6-2.2,4c-0.2,0-0.2,0-0.4,0l-7.8,1.2l-52.8-121.2L423,148.8z M382.8,150l53.4,122.6l-28,4.4l-55-126L382.8,150z
				 M415,292.6l-2.8-6.4l28-4.4l2.6,6.2L415,292.6z M338.8,305.2l-3-7l28-4.4l3,6.8L338.8,305.2z M331.8,288.8l-22-50.6l-5.2-80.6
				l55.2,127L331.8,288.8z M316.6,291c-1.8,0.2-3.4-1-3.6-2.8c0-0.2,0-0.4,0-0.4l-1.4-20.4l10,22.8L316.6,291z M325.6,299.8l3,7
				l-27.8,4.6l-3.2-7.2L325.6,299.8z M290.6,313l-27.8,4.6l-3.2-7.6l28-4.4L290.6,313z M377,299l-3-6.6l28-4.4l2.8,6.4L377,299z
				 M342.4,151l55.4,127.4l-28,4.4l-57-131L342.4,151z M303.4,142.2l-0.4-6.4l12-1.8l1.2,7.8L303.4,142.2z M297.8,211l-25.2-58
				l21.4-0.6L297.8,211z M261.8,153.2l38,87.2l3.2,48c0,1.6,0.4,3,1,4.6l-10.4,1.6L232.2,154L261.8,153.2z M221.4,154.4l61.8,141.8
				l-28,4.4L192,155.2L221.4,154.4z M249.2,311.6l3.4,7.6l-27.8,4.6l-3.4-7.8L249.2,311.6z M247.4,458.8c0,16.4-13.2,29.6-29.6,29.6
				s-29.6-13.2-29.6-29.6s13.2-29.6,29.6-29.6S247.4,442.4,247.4,458.8z M418.2,458.8c0,16.4-13.2,29.6-29.6,29.6
				S359,475.2,359,458.8s13.2-29.6,29.6-29.6S418.2,442.4,418.2,458.8z M409.4,310.6c0.6,3.8-2,7.4-5.8,8l-159.8,26.2
				c-14.2,2.4-26.8,10.4-35,22.2L188,397.4c-1.6,2.2-1,5.4,1.2,7c0.8,0.6,1.8,0.8,2.8,0.8h239.8c3.8,0,7,3.2,7,7s-3.2,7-7,7H180.6
				c-7.2,0-13-5.8-13-13c0-2.6,0.8-5.2,2.4-7.4l27.4-39.6c9.4-13.6,23.6-23.4,39.8-27.2l166-27.2C406.2,305,409,307.4,409.4,310.6
				L409.4,310.6z M461.6,285l-8.4,1.4l-2.6-6l5.2-0.8c7.2-1.2,12.2-8,11-15.2c0-0.4-0.2-1-0.2-1.4l-8.6-34.2l13.4,30.8v14.2
				C471.2,279.4,467.2,284.2,461.6,285L461.6,285z M464.2,147.8c3.8-0.2,7,2.8,7,6.6v0.2v80l-27.8-64l-5.4-22L464.2,147.8z
				 M420,117.6l5.2,21.2l-99,2.6l-1.4-9.2l73.8-11.4l1.6,10.2c0.4,2.8,3,4.6,5.8,4.2s4.6-3,4.2-5.8l-1.6-10.2L420,117.6z M354,77.2
				c20.4-3.2,39.4,10.8,42.6,31.2l0.4,2.6l-38.4,6L349,78.4C350.8,77.8,352.4,77.4,354,77.2z M328.2,78.8c-2.4,2.2-4.8,4.6-6.8,7.4
				l-1-6.2L328.2,78.8z M208,82.4c-4.4-27.6,14.4-53.8,42.2-58.2s53.8,14.4,58.2,42.2v0.4l0.8,5L208.8,87.4L208,82.4z M182.2,101.6
				l18.2-2.8l2.4,15c1,6.6,10.8,5,9.8-1.6l-2.4-15l100.4-15.6l2.4,15c0.2,1.2,0.8,2.2,1.8,3c-2.4,7-3,14.6-1.8,22l0.4,2.6l-12.6,2
				c-4.6,0.8-8,4.8-7.8,9.6l0.4,6.8l-108.8,3l-2.8-43.6C181.8,101.8,182,101.6,182.2,101.6L182.2,101.6z M179.4,220l-27.8-63.8
				l23.6-0.6L179.4,220z M140.8,156.6l40.4,93l3.6,54.4c0.4,8.8,7.8,15.6,16.6,15.2c0.6,0,1.2,0,1.8-0.2l7.8-1.2l3.4,8l-10.4,1.8
				c-12,2-23.8-4.4-28.8-15.6l-67-154.6L140.8,156.6z M18.4,83l59,5.6c4.2,0.4,7.4,4.2,7,8.4s-4.2,7.4-8.4,7l-59-5.4
				c-4.2-0.4-7.4-4.2-7-8.6C10.4,85.8,14.2,82.6,18.4,83z"/>
			<path d="M217.8,476.2c9.6,0,17.4-7.8,17.4-17.4s-7.8-17.4-17.4-17.4s-17.4,7.8-17.4,17.4S208.2,476.2,217.8,476.2z M217.8,451.4
				c4.2,0,7.4,3.4,7.4,7.4s-3.4,7.4-7.4,7.4c-4.2,0-7.4-3.4-7.4-7.4C210.4,454.6,213.8,451.4,217.8,451.4z"/>
			<path d="M388.6,476.2c9.6,0,17.4-7.8,17.4-17.4s-7.8-17.4-17.4-17.4s-17.4,7.8-17.4,17.4S379,476.2,388.6,476.2z M388.6,451.4
				c4.2,0,7.4,3.4,7.4,7.4c0,4.2-3.4,7.4-7.4,7.4c-4.2,0-7.4-3.4-7.4-7.4C381.2,454.6,384.6,451.4,388.6,451.4z"/>
		</g>
	</g>
</g>
</svg>
